<?xml version="1.0" encoding="UTF-8"?>
<svg width="48px" height="48px" viewBox="0 0 48 48" version="1.1" xmlns="http://www.w3.org/2000/svg" xmlns:xlink="http://www.w3.org/1999/xlink">
    <!-- Generator: Sketch 48.2 (47327) - http://www.bohemiancoding.com/sketch -->
    <title>Slice 1</title>
    <desc>Created with Sketch.</desc>
    <defs></defs>
    <g id="Page-1" stroke="none" stroke-width="1" fill="none" fill-rule="evenodd">
        <g id="Group-4" fill="#323937">
            <path d="M4.5,33 C2.8455,33 1.5,34.3455 1.5,36 C1.5,37.6545 2.8455,39 4.5,39 L30,39 C31.6545,39 33,37.6545 33,36 C33,34.3455 31.6545,33 30,33 L4.5,33 Z M30,40.5 L4.5,40.5 C2.01825,40.5 0,38.48175 0,36 C0,33.51825 2.01825,31.5 4.5,31.5 L30,31.5 C32.48175,31.5 34.5,33.51825 34.5,36 C34.5,38.48175 32.48175,40.5 30,40.5 Z" id="Fill-501"></path>
            <path d="M6,37.5 C5.17275,37.5 4.5,36.82725 4.5,36 C4.5,35.17275 5.17275,34.5 6,34.5 C6.82725,34.5 7.5,35.17275 7.5,36 C7.5,36.82725 6.82725,37.5 6,37.5" id="Fill-502"></path>
            <path d="M10.5,37.5 C9.67275,37.5 9,36.82725 9,36 C9,35.17275 9.67275,34.5 10.5,34.5 C11.32725,34.5 12,35.17275 12,36 C12,36.82725 11.32725,37.5 10.5,37.5" id="Fill-503"></path>
            <path d="M15,37.5 C14.17275,37.5 13.5,36.82725 13.5,36 C13.5,35.17275 14.17275,34.5 15,34.5 C15.82725,34.5 16.5,35.17275 16.5,36 C16.5,36.82725 15.82725,37.5 15,37.5" id="Fill-504"></path>
            <path d="M19.5,37.5 C18.67275,37.5 18,36.82725 18,36 C18,35.17275 18.67275,34.5 19.5,34.5 C20.32725,34.5 21,35.17275 21,36 C21,36.82725 20.32725,37.5 19.5,37.5" id="Fill-505"></path>
            <path d="M24,37.5 C23.17275,37.5 22.5,36.82725 22.5,36 C22.5,35.17275 23.17275,34.5 24,34.5 C24.82725,34.5 25.5,35.17275 25.5,36 C25.5,36.82725 24.82725,37.5 24,37.5" id="Fill-506"></path>
            <path d="M28.5,37.5 C27.67275,37.5 27,36.82725 27,36 C27,35.17275 27.67275,34.5 28.5,34.5 C29.32725,34.5 30,35.17275 30,36 C30,36.82725 29.32725,37.5 28.5,37.5" id="Fill-507"></path>
            <path d="M4.5,32.25 L3,32.25 L3,29.25 C3,28.836 3.33525,28.5 3.75,28.5 L7.5,28.5 L7.5,30 L4.5,30 L4.5,32.25" id="Fill-508"></path>
            <path d="M31.5,32.25 L30,32.25 L30,30 L14.25,30 C13.83525,30 13.5,29.664 13.5,29.25 L13.5,25.5 L6,25.5 L6,29.25 L4.5,29.25 L4.5,24.75 C4.5,24.336 4.83525,24 5.25,24 L14.25,24 C14.66475,24 15,24.336 15,24.75 L15,28.5 L30.75,28.5 C31.16475,28.5 31.5,28.836 31.5,29.25 L31.5,32.25" id="Fill-509"></path>
            <path d="M15,28.5 L27,28.5 L27,19.5 C27,16.19175 24.30825,13.5 21,13.5 L12,13.5 L12,24 L14.25,24 C14.66475,24 15,24.336 15,24.75 L15,28.5 Z M27.75,30 L14.25,30 C13.83525,30 13.5,29.664 13.5,29.25 L13.5,25.5 L11.25,25.5 C10.83525,25.5 10.5,25.164 10.5,24.75 L10.5,12.75 C10.5,12.336 10.83525,12 11.25,12 L21,12 C25.1355,12 28.5,15.3645 28.5,19.5 L28.5,29.25 C28.5,29.664 28.16475,30 27.75,30 Z" id="Fill-510"></path>
            <path d="M24.75,19.5 L23.25,19.5 C23.25,18.2595 22.2405,17.25 21,17.25 L21,15.75 C23.06775,15.75 24.75,17.43225 24.75,19.5" id="Fill-511"></path>
            <polygon id="Fill-512" points="11.25 16.5 13.5 16.5 13.5 15 11.25 15"></polygon>
            <polygon id="Fill-513" points="11.25 19.5 13.5 19.5 13.5 18 11.25 18"></polygon>
            <polygon id="Fill-514" points="11.25 22.5 13.5 22.5 13.5 21 11.25 21"></polygon>
            <path d="M44.352,26.628 L34.46925,9.6855 L28.38075,19.15575 L27.11925,18.34425 L33.86925,7.84425 C34.01025,7.62525 34.2765,7.5135 34.51575,7.5 C34.77675,7.506 35.016,7.647 35.148,7.872 L45.648,25.872 L44.352,26.628" id="Fill-515"></path>
            <path d="M34.60275,25.1625 C35.13,28.25325 37.63275,31.5 40.5,31.5 C43.73925,31.5 46.083,29.685 46.44975,27 L36.75,27 C36.5505,27 36.36,26.92125 36.21975,26.78025 L34.60275,25.1625 Z M40.5,33 C36.34575,33 33,28.07625 33,24 C33,23.586 33.33525,23.25 33.75,23.25 L34.5,23.25 C34.6995,23.25 34.89,23.32875 35.03025,23.46975 L37.0605,25.5 L46.5,25.5 L46.5,24.17175 L35.52975,1.5 L33.3105,1.5 L21.53025,13.28025 L20.46975,12.21975 L32.46975,0.21975 C32.61,0.07875 32.8005,0 33,0 L36,0 C36.288,0 36.54975,0.16425 36.675,0.423 L47.925,23.673 C47.9745,23.775 48,23.88675 48,24 L48,26.25 C48,30.16125 44.8455,33 40.5,33 Z" id="Fill-516"></path>
            <path d="M27.75,25.5 L20.25,25.5 C18.18225,25.5 16.5,23.81775 16.5,21.75 L16.5,12.75 L18,12.75 L18,21.75 C18,22.9905 19.0095,24 20.25,24 L27.75,24 L27.75,25.5" id="Fill-517"></path>
            <path d="M3,45.75 L0,45.75 L0,44.25 L2.6895,44.25 L7.71975,39.21975 C7.86,39.07875 8.0505,39 8.25,39 L32.25,39 C32.4495,39 32.64,39.07875 32.78025,39.21975 L37.28025,43.71975 L36.21975,44.78025 L31.9395,40.5 L8.5605,40.5 L3.53025,45.53025 C3.39,45.67125 3.1995,45.75 3,45.75" id="Fill-518"></path>
            <polygon id="Fill-519" points="9.75 43.5 17.25 43.5 17.25 42 9.75 42"></polygon>
            <polygon id="Fill-520" points="18.75 43.5 20.25 43.5 20.25 42 18.75 42"></polygon>
            <polygon id="Fill-521" points="14.25 48 30.75 48 30.75 46.5 14.25 46.5"></polygon>
            <path d="M38.25,48 L32.25,48 L32.25,46.5 L37.9395,46.5 L40.71975,43.71975 C40.86,43.57875 41.0505,43.5 41.25,43.5 L48,43.5 L48,45 L41.5605,45 L38.78025,47.78025 C38.64,47.92125 38.4495,48 38.25,48" id="Fill-522"></path>
        </g>
    </g>
</svg>