<?xml version="1.0" encoding="UTF-8"?>
<svg width="48px" height="48px" viewBox="0 0 48 48" version="1.1" xmlns="http://www.w3.org/2000/svg" xmlns:xlink="http://www.w3.org/1999/xlink">
    <!-- Generator: Sketch 48.2 (47327) - http://www.bohemiancoding.com/sketch -->
    <title>Slice 1</title>
    <desc>Created with Sketch.</desc>
    <defs></defs>
    <g id="Page-1" stroke="none" stroke-width="1" fill="none" fill-rule="evenodd">
        <g id="Group" fill="#323937">
            <path d="M4.5,48 L0.75,48 C0.336,48 0,47.66475 0,47.25 L0,9.75 C0,9.33525 0.336,9 0.75,9 L26.25,9 C26.664,9 27,9.33525 27,9.75 L27,19.5 L25.5,19.5 L25.5,10.5 L1.5,10.5 L1.5,46.5 L4.5,46.5 L4.5,48" id="Fill-458"></path>
            <path d="M47.25,48 L6.75,48 L6.75,46.5 L46.5,46.5 L46.5,21.75 L48,21.75 L48,47.25 C48,47.66475 47.664,48 47.25,48" id="Fill-459"></path>
            <path d="M21,7.5 L19.5,7.5 C19.5,4.19175 16.80825,1.5 13.5,1.5 C10.19175,1.5 7.5,4.19175 7.5,7.5 L6,7.5 C6,3.3645 9.3645,0 13.5,0 C17.6355,0 21,3.3645 21,7.5" id="Fill-460"></path>
            <polygon id="Fill-461" points="6 18 7.5 18 7.5 7.5 6 7.5"></polygon>
            <polygon id="Fill-462" points="19.5 18 21 18 21 7.5 19.5 7.5"></polygon>
            <polygon id="Fill-463" points="19.5 31.5 21 31.5 21 25.5 19.5 25.5"></polygon>
            <polygon id="Fill-464" points="33 31.5 34.5 31.5 34.5 25.5 33 25.5"></polygon>
            <path d="M27,39 C22.8645,39 19.5,35.6355 19.5,31.5 L21,31.5 C21,34.80825 23.69175,37.5 27,37.5 C30.30825,37.5 33,34.80825 33,31.5 L34.5,31.5 C34.5,35.6355 31.1355,39 27,39" id="Fill-465"></path>
            <polygon id="Fill-466" points="0.75 39 4.5 39 4.5 37.5 0.75 37.5"></polygon>
            <polygon id="Fill-467" points="30 18 31.5 18 31.5 16.5 30 16.5"></polygon>
            <polygon id="Fill-468" points="33 18 34.5 18 34.5 16.5 33 16.5"></polygon>
            <polygon id="Fill-469" points="36 18 37.5 18 37.5 16.5 36 16.5"></polygon>
            <path d="M7.5,46.5 L46.5,46.5 L46.5,22.5 L7.5,22.5 L7.5,46.5 Z M47.25,48 L6.75,48 C6.336,48 6,47.66475 6,47.25 L6,21.75 C6,21.33525 6.336,21 6.75,21 L47.25,21 C47.664,21 48,21.33525 48,21.75 L48,47.25 C48,47.66475 47.664,48 47.25,48 Z" id="Fill-470"></path>
            <polygon id="Fill-471" points="6.75 43.5 47.25 43.5 47.25 42 6.75 42"></polygon>
        </g>
    </g>
</svg>