<?xml version="1.0" encoding="UTF-8"?>
<svg width="99px" height="98px" viewBox="0 0 99 98" version="1.1" xmlns="http://www.w3.org/2000/svg" xmlns:xlink="http://www.w3.org/1999/xlink">
    <!-- Generator: Sketch 48.2 (47327) - http://www.bohemiancoding.com/sketch -->
    <title>Untitled</title>
    <desc>Created with Sketch.</desc>
    <defs></defs>
    <g id="Page-1" stroke="none" stroke-width="1" fill="none" fill-rule="evenodd">
        <g id="icons8-interior_accesories" transform="translate(-1.000000, 0.000000)" fill-rule="nonzero">
            <rect id="Rectangle-path" fill="#9FA8DA" x="47.6153846" y="74.7894737" width="5.17948718" height="15.4736842"></rect>
            <path d="M78.6923077,98 C78.6923077,92.3031053 65.9378205,87.6842105 50.2051282,87.6842105 C34.4724359,87.6842105 21.7179487,92.3031053 21.7179487,98 L78.6923077,98 Z" id="Shape" fill="#C5CAE9"></path>
            <path d="M50.2051282,56.7368421 L29.4871795,56.7368421 C29.4871795,46.0986842 13.9487179,36.4276316 13.9487179,18.0526316 C13.9487179,-0.322368421 50.2051282,2.29059393e-15 50.2051282,2.29059393e-15 C50.2051282,2.29059393e-15 86.4615385,-0.322368421 86.4615385,18.0526316 C86.4615385,36.4276316 70.9230769,46.0986842 70.9230769,56.7368421 C70.9230769,56.7368421 50.2051282,56.7368421 50.2051282,56.7368421 Z" id="Shape" fill="#D50000"></path>
            <path d="M16.5384615,23.2105263 C16.5384615,7.46089474 50.2051282,7.73684211 50.2051282,7.73684211 C50.2051282,7.73684211 83.8717949,7.46089474 83.8717949,23.2105263 C83.8717949,27.6179474 83.0482564,31.4528421 81.8802821,34.9163684 C84.4467179,30.1143684 86.4615385,24.6495789 86.4615385,18.0526316 C86.4615385,-0.322368421 50.2051282,-5.42101086e-20 50.2051282,-5.42101086e-20 C50.2051282,-5.42101086e-20 13.9487179,-0.322368421 13.9487179,18.0526316 C13.9487179,24.6495789 15.9635385,30.1143684 18.5299744,34.9163684 C17.362,31.4528421 16.5384615,27.6179474 16.5384615,23.2105263 Z" id="Shape" fill="#FF5252"></path>
            <path d="M99.3506923,42.8827368 C99.0943077,40.8324737 98.050641,39.0065789 96.4139231,37.7377368 C95.0568974,36.6855263 93.3632051,36.1052632 91.6436154,36.1052632 C89.2325641,36.1052632 86.9976154,37.191 85.5085128,39.0916842 L78.557641,47.9194211 L75.3748462,51.989 C74.3001026,53.3661579 72.6763333,54.1578947 70.9230769,54.1578947 L29.4871795,54.1578947 C27.7339231,54.1578947 26.1101538,53.3661579 25.0328205,51.989 L21.8500256,47.9194211 L14.8991538,39.0916842 C13.412641,37.191 11.1776923,36.1052632 8.76664103,36.1052632 C7.04705128,36.1052632 5.35335897,36.6855263 3.99633333,37.7377368 C2.36220513,39.004 1.31853846,40.8324737 1.0595641,42.8827368 C0.803179487,44.9355789 1.3625641,46.9626316 2.63930769,48.5951053 L16.7404615,66.6503158 C20.785641,71.8236842 26.8767179,74.7894737 33.4546667,74.7894737 L66.9555897,74.7894737 C73.5335385,74.7894737 79.6246154,71.8236842 83.6723846,66.6503158 L97.7735385,48.5951053 C99.0476923,46.9626316 99.6070769,44.933 99.3506923,42.8827368 Z" id="Shape" fill="#B71C1C"></path>
            <path d="M99.3506923,42.8827368 C99.0943077,40.8324737 98.050641,39.0065789 96.4139231,37.7377368 C95.0568974,36.6855263 93.3632051,36.1052632 91.6436154,36.1052632 C89.2325641,36.1052632 86.9976154,37.191 85.5085128,39.0916842 L71.4099487,57.1468947 C70.3300256,58.5240526 68.7062564,59.3157895 66.9555897,59.3157895 L50.2051282,59.3157895 L33.4546667,59.3157895 C31.7014103,59.3157895 30.077641,58.5240526 29.0003077,57.1468947 L14.9017436,39.0916842 C13.412641,37.191 11.1776923,36.1052632 8.76664103,36.1052632 C7.04705128,36.1052632 5.35335897,36.6855263 3.99633333,37.7377368 C2.36220513,39.004 1.31853846,40.8324737 1.0595641,42.8827368 C0.803179487,44.9355789 1.3625641,46.9626316 2.63930769,48.5951053 L16.7404615,66.6503158 C20.785641,71.8236842 26.8767179,74.7894737 33.4546667,74.7894737 L50.2051282,74.7894737 L66.9555897,74.7894737 C73.5335385,74.7894737 79.6246154,71.8236842 83.6723846,66.6503158 L97.7735385,48.5951053 C99.0476923,46.9626316 99.6070769,44.933 99.3506923,42.8827368 Z" id="Shape" fill="#FF5252"></path>
        </g>
    </g>
</svg>