<?xml version="1.0" encoding="UTF-8"?>
<svg width="48px" height="48px" viewBox="0 0 48 48" version="1.1" xmlns="http://www.w3.org/2000/svg" xmlns:xlink="http://www.w3.org/1999/xlink">
    <!-- Generator: Sketch 48.2 (47327) - http://www.bohemiancoding.com/sketch -->
    <title>Slice 1</title>
    <desc>Created with Sketch.</desc>
    <defs></defs>
    <g id="Page-1" stroke="none" stroke-width="1" fill="none" fill-rule="evenodd">
        <g id="Group" fill="#323937">
            <path d="M6.75,17.25 C5.5095,17.25 4.5,18.2595 4.5,19.5 L4.5,44.25 C4.5,45.4905 5.5095,46.5 6.75,46.5 L21.75,46.5 C22.9905,46.5 24,45.4905 24,44.25 L24,19.5 C24,18.2595 22.9905,17.25 21.75,17.25 L6.75,17.25 Z M21.75,48 L6.75,48 C4.68225,48 3,46.31775 3,44.25 L3,19.5 C3,17.43225 4.68225,15.75 6.75,15.75 L21.75,15.75 C23.81775,15.75 25.5,17.43225 25.5,19.5 L25.5,44.25 C25.5,46.31775 23.81775,48 21.75,48 Z" id="Fill-533"></path>
            <path d="M24.75,48 L21.75,48 L21.75,46.5 L24.75,46.5 C25.9905,46.5 27,45.4905 27,44.25 L27,36.75 C27,35.5095 25.9905,34.5 24.75,34.5 L24.75,33 C26.81775,33 28.5,34.68225 28.5,36.75 L28.5,44.25 C28.5,46.31775 26.81775,48 24.75,48" id="Fill-534"></path>
            <path d="M6.75,48 L3.75,48 C1.68225,48 0,46.31775 0,44.25 L0,36.75 C0,34.68225 1.68225,33 3.75,33 L3.75,34.5 C2.5095,34.5 1.5,35.5095 1.5,36.75 L1.5,44.25 C1.5,45.4905 2.5095,46.5 3.75,46.5 L6.75,46.5 L6.75,48" id="Fill-535"></path>
            <path d="M19.5,16.5 L18,16.5 C18,15.2595 16.9905,14.25 15.75,14.25 L12.75,14.25 C11.5095,14.25 10.5,15.2595 10.5,16.5 L9,16.5 C9,14.43225 10.68225,12.75 12.75,12.75 L15.75,12.75 C17.81775,12.75 19.5,14.43225 19.5,16.5" id="Fill-536"></path>
            <path d="M41.25,24 L39.75,24 L39.75,6.75 C39.75,3.855 37.395,1.5 34.5,1.5 L18.75,1.5 C15.855,1.5 13.5,3.855 13.5,6.75 L13.5,12.75 L15,12.75 L15,6.75 C15,4.68225 16.68225,3 18.75,3 L34.5,3 C36.56775,3 38.25,4.68225 38.25,6.75 L38.25,24 L36.75,24 L36.75,6.75 C36.75,5.5095 35.7405,4.5 34.5,4.5 L18.75,4.5 C17.5095,4.5 16.5,5.5095 16.5,6.75 L16.5,13.5 C16.5,13.914 16.164,14.25 15.75,14.25 L12.75,14.25 C12.336,14.25 12,13.914 12,13.5 L12,6.75 C12,3.0285 15.0285,0 18.75,0 L34.5,0 C38.2215,0 41.25,3.0285 41.25,6.75 L41.25,24" id="Fill-537"></path>
            <path d="M31.57575,46.5 L46.42425,46.5 C46.07625,44.79075 44.56125,43.5 42.75,43.5 L35.25,43.5 C33.43875,43.5 31.92375,44.79075 31.57575,46.5 Z M47.25,48 L30.75,48 C30.336,48 30,47.66475 30,47.25 C30,44.35575 32.355,42 35.25,42 L42.75,42 C45.645,42 48,44.35575 48,47.25 C48,47.66475 47.664,48 47.25,48 Z" id="Fill-538"></path>
            <path d="M36.5745,42 L41.4255,42 L39.85725,39.38625 C39.78675,39.26925 39.75,39.1365 39.75,39 L39.75,24.75 L38.25,24.75 L38.25,39 C38.25,39.1365 38.21325,39.26925 38.14275,39.38625 L36.5745,42 Z M42.75,43.5 L35.25,43.5 C34.98,43.5 34.73025,43.35525 34.5975,43.11975 C34.464,42.88425 34.46775,42.5955 34.60725,42.36375 L36.75,38.79225 L36.75,24 C36.75,23.586 37.086,23.25 37.5,23.25 L40.5,23.25 C40.914,23.25 41.25,23.586 41.25,24 L41.25,38.79225 L43.39275,42.36375 C43.53225,42.5955 43.536,42.88425 43.4025,43.11975 C43.26975,43.35525 43.02,43.5 42.75,43.5 Z" id="Fill-539"></path>
            <polygon id="Fill-540" points="37.5 39.75 40.5 39.75 40.5 38.25 37.5 38.25"></polygon>
            <path d="M21,45 L19.5,45 L19.5,27 C19.5,24.105 17.145,21.75 14.25,21.75 C11.355,21.75 9,24.105 9,27 L9,45 L7.5,45 L7.5,27 C7.5,23.2785 10.5285,20.25 14.25,20.25 C17.9715,20.25 21,23.2785 21,27 L21,45" id="Fill-541"></path>
            <path d="M14.25,24.75 C13.0095,24.75 12,25.7595 12,27 C12,28.2405 13.0095,29.25 14.25,29.25 C15.4905,29.25 16.5,28.2405 16.5,27 C16.5,25.7595 15.4905,24.75 14.25,24.75 Z M14.25,30.75 C12.18225,30.75 10.5,29.06775 10.5,27 C10.5,24.93225 12.18225,23.25 14.25,23.25 C16.31775,23.25 18,24.93225 18,27 C18,29.06775 16.31775,30.75 14.25,30.75 Z" id="Fill-542"></path>
            <polygon id="Fill-543" points="12 43.5 16.5 43.5 16.5 42 12 42"></polygon>
            <polygon id="Fill-544" points="12 40.5 16.5 40.5 16.5 39 12 39"></polygon>
            <polygon id="Fill-545" points="12 37.5 16.5 37.5 16.5 36 12 36"></polygon>
        </g>
    </g>
</svg>