<?xml version="1.0" encoding="UTF-8"?>
<svg width="48px" height="45px" viewBox="0 0 48 45" version="1.1" xmlns="http://www.w3.org/2000/svg" xmlns:xlink="http://www.w3.org/1999/xlink">
    <!-- Generator: Sketch 48.2 (47327) - http://www.bohemiancoding.com/sketch -->
    <title>Untitled</title>
    <desc>Created with Sketch.</desc>
    <defs></defs>
    <g id="Page-1" stroke="none" stroke-width="1" fill="none" fill-rule="evenodd">
        <g id="Group" fill="#323937">
            <path d="M1.5,43.5 L46.5,43.5 L46.5,16.617 L37.9845,23.82225 C37.76175,24.01125 37.44975,24.05325 37.18425,23.93025 C36.9195,23.80725 36.75,23.54175 36.75,23.25 L36.75,16.617 L28.2345,23.82225 C28.01175,24.01125 27.69975,24.05325 27.43425,23.93025 C27.1695,23.80725 27,23.54175 27,23.25 L27,16.617 L18.4845,23.82225 C18.26175,24.01125 17.9505,24.05325 17.68425,23.93025 C17.4195,23.80725 17.25,23.54175 17.25,23.25 L17.25,16.69575 L10.5,22.8315 L10.5,39 L9,39 L9,22.5705 L6.12975,7.5 L4.37025,7.5 L1.5,22.5705 L1.5,43.5 Z M47.25,45 L0.75,45 C0.33525,45 0,44.664 0,44.25 L0,22.5 C0,22.45275 0.0045,22.40625 0.0135,22.35975 L3.0135,6.60975 C3.08025,6.25575 3.39,6 3.75,6 L6.75,6 C7.11,6 7.41975,6.25575 7.4865,6.60975 L10.236,21.04425 L17.49525,14.445 C17.71425,14.2455 18.03225,14.19375 18.303,14.31375 C18.57525,14.4345 18.75,14.703 18.75,15 L18.75,21.633 L27.2655,14.42775 C27.4875,14.23875 27.7995,14.196 28.06575,14.31975 C28.3305,14.44275 28.5,14.70825 28.5,15 L28.5,21.633 L37.0155,14.42775 C37.2375,14.23875 37.54875,14.196 37.81575,14.31975 C38.0805,14.44275 38.25,14.70825 38.25,15 L38.25,21.633 L46.7655,14.42775 C46.9875,14.23875 47.29875,14.196 47.56575,14.31975 C47.8305,14.44275 48,14.70825 48,15 L48,44.25 C48,44.664 47.66475,45 47.25,45 Z" id="Fill-690"></path>
            <path d="M21,4.5 C19.404,4.5 18.2535,2.856 18.1275,2.6685 C17.922,2.36625 17.1795,1.5 16.5,1.5 C15.80025,1.5 15.03825,2.42175 14.8725,2.6685 C14.7465,2.856 13.596,4.5 12,4.5 C10.404,4.5 9.2535,2.856 9.1275,2.6685 C8.922,2.36625 8.1795,1.5 7.5,1.5 L7.5,0 C9.096,0 10.2465,1.644 10.3725,1.8315 C10.578,2.13375 11.3205,3 12,3 C12.69975,3 13.46175,2.07825 13.6275,1.8315 C13.7535,1.644 14.904,0 16.5,0 C18.096,0 19.2465,1.644 19.3725,1.8315 C19.578,2.13375 20.3205,3 21,3 C21.69975,3 22.46175,2.07825 22.6275,1.8315 C22.7535,1.644 23.904,0 25.5,0 L25.5,1.5 C24.80025,1.5 24.03825,2.42175 23.8725,2.6685 C23.7465,2.856 22.596,4.5 21,4.5" id="Fill-691"></path>
            <path d="M6,3 L4.5,3 C4.5,1.3455 5.8455,0 7.5,0 L7.5,1.5 C6.67275,1.5 6,2.17275 6,3" id="Fill-692"></path>
            <polygon id="Fill-693" points="4.5 4.5 6 4.5 6 3 4.5 3"></polygon>
            <polygon id="Fill-694" points="4.5 34.5 6 34.5 6 33 4.5 33"></polygon>
            <polygon id="Fill-695" points="4.5 37.5 6 37.5 6 36 4.5 36"></polygon>
            <polygon id="Fill-696" points="4.5 31.5 6 31.5 6 30 4.5 30"></polygon>
            <polygon id="Fill-697" points="4.5 28.5 6 28.5 6 27 4.5 27"></polygon>
            <path d="M15.75,30 L18.75,30 L18.75,28.5 L15.75,28.5 L15.75,30 Z M14.25,31.5 L20.25,31.5 L20.25,27 L14.25,27 L14.25,31.5 Z" id="Fill-698"></path>
            <path d="M15.75,36 L18.75,36 L18.75,34.5 L15.75,34.5 L15.75,36 Z M14.25,37.5 L20.25,37.5 L20.25,33 L14.25,33 L14.25,37.5 Z" id="Fill-699"></path>
            <path d="M23.25,30 L26.25,30 L26.25,28.5 L23.25,28.5 L23.25,30 Z M21.75,31.5 L27.75,31.5 L27.75,27 L21.75,27 L21.75,31.5 Z" id="Fill-700"></path>
            <path d="M23.25,36 L26.25,36 L26.25,34.5 L23.25,34.5 L23.25,36 Z M21.75,37.5 L27.75,37.5 L27.75,33 L21.75,33 L21.75,37.5 Z" id="Fill-701"></path>
            <path d="M30.75,30 L33.75,30 L33.75,28.5 L30.75,28.5 L30.75,30 Z M29.25,31.5 L35.25,31.5 L35.25,27 L29.25,27 L29.25,31.5 Z" id="Fill-702"></path>
            <path d="M30.75,36 L33.75,36 L33.75,34.5 L30.75,34.5 L30.75,36 Z M29.25,37.5 L35.25,37.5 L35.25,33 L29.25,33 L29.25,37.5 Z" id="Fill-703"></path>
            <path d="M38.25,30 L41.25,30 L41.25,28.5 L38.25,28.5 L38.25,30 Z M36.75,31.5 L42.75,31.5 L42.75,27 L36.75,27 L36.75,31.5 Z" id="Fill-704"></path>
            <path d="M38.25,36 L41.25,36 L41.25,34.5 L38.25,34.5 L38.25,36 Z M36.75,37.5 L42.75,37.5 L42.75,33 L36.75,33 L36.75,37.5 Z" id="Fill-705"></path>
            <polygon id="Fill-706" points="12 42 45 42 45 40.5 12 40.5"></polygon>
            <polygon id="Fill-707" points="3 12 7.5 12 7.5 10.5 3 10.5"></polygon>
            <polyline id="Fill-708" points="10.5 44.25 9 44.25 9 42 0.75 42 0.75 40.5 10.5 40.5 10.5 44.25"></polyline>
        </g>
    </g>
</svg>