<?xml version="1.0" encoding="UTF-8"?>
<svg width="48px" height="48px" viewBox="0 0 48 48" version="1.1" xmlns="http://www.w3.org/2000/svg" xmlns:xlink="http://www.w3.org/1999/xlink">
    <!-- Generator: Sketch 48.2 (47327) - http://www.bohemiancoding.com/sketch -->
    <title>Untitled</title>
    <desc>Created with Sketch.</desc>
    <defs></defs>
    <g id="Page-1" stroke="none" stroke-width="1" fill="none" fill-rule="evenodd">
        <g id="Group" fill="#323937">
            <path d="M4.5,21 C3.67275,21 3,21.67275 3,22.5 C3,23.32725 3.67275,24 4.5,24 C5.32725,24 6,23.32725 6,22.5 C6,21.67275 5.32725,21 4.5,21 Z M4.5,25.5 C2.8455,25.5 1.5,24.1545 1.5,22.5 C1.5,20.8455 2.8455,19.5 4.5,19.5 C6.1545,19.5 7.5,20.8455 7.5,22.5 C7.5,24.1545 6.1545,25.5 4.5,25.5 Z" id="Fill-636"></path>
            <path d="M8.25,28.5 C7.836,28.5 7.5,28.83675 7.5,29.25 L7.5,41.25 C7.5,41.66325 7.836,42 8.25,42 L11.25,42 C11.664,42 12,41.66325 12,41.25 L12,29.25 C12,28.83675 11.664,28.5 11.25,28.5 L8.25,28.5 Z M11.25,43.5 L8.25,43.5 C7.0095,43.5 6,42.4905 6,41.25 L6,29.25 C6,28.0095 7.0095,27 8.25,27 L11.25,27 C12.4905,27 13.5,28.0095 13.5,29.25 L13.5,41.25 C13.5,42.4905 12.4905,43.5 11.25,43.5 Z" id="Fill-637"></path>
            <polygon id="Fill-638" points="23.25 35.25 24.75 35.25 24.75 33.75 23.25 33.75"></polygon>
            <polygon id="Fill-639" points="20.25 35.25 21.75 35.25 21.75 33.75 20.25 33.75"></polygon>
            <polygon id="Fill-640" points="26.25 35.25 27.75 35.25 27.75 33.75 26.25 33.75"></polygon>
            <path d="M22.5,44.25 C22.086,44.25 21.75,44.58675 21.75,45 L21.75,45.75 C21.75,46.16325 22.086,46.5 22.5,46.5 L27,46.5 C27.414,46.5 27.75,46.16325 27.75,45.75 L27.75,45 C27.75,44.58675 27.414,44.25 27,44.25 L22.5,44.25 Z M27,48 L22.5,48 C21.2595,48 20.25,46.9905 20.25,45.75 L20.25,45 C20.25,43.7595 21.2595,42.75 22.5,42.75 L27,42.75 C28.2405,42.75 29.25,43.7595 29.25,45 L29.25,45.75 C29.25,46.9905 28.2405,48 27,48 Z" id="Fill-641"></path>
            <path d="M39,48 L27,48 L27,46.5 L39,46.5 C39.82725,46.5 40.5,45.82725 40.5,45 L40.5,41.25 L42,41.25 L42,45 C42,46.6545 40.6545,48 39,48" id="Fill-642"></path>
            <path d="M6.75,42 C3.02775,42 0,38.9715 0,35.25 C0,31.5285 3.02775,28.5 6.75,28.5 L6.75,30 C3.85575,30 1.5,32.355 1.5,35.25 C1.5,38.145 3.85575,40.5 6.75,40.5 L6.75,42" id="Fill-643"></path>
            <path d="M3,31.5 L1.5,31.5 L1.5,27 C1.5,26.91975 1.5135,26.8395 1.539,26.763 L2.289,24.513 L3.711,24.987 L3,27.1215 L3,31.5" id="Fill-644"></path>
            <path d="M43.5,21 C42.67275,21 42,21.67275 42,22.5 C42,23.32725 42.67275,24 43.5,24 C44.32725,24 45,23.32725 45,22.5 C45,21.67275 44.32725,21 43.5,21 Z M43.5,25.5 C41.8455,25.5 40.5,24.1545 40.5,22.5 C40.5,20.8455 41.8455,19.5 43.5,19.5 C45.1545,19.5 46.5,20.8455 46.5,22.5 C46.5,24.1545 45.1545,25.5 43.5,25.5 Z" id="Fill-645"></path>
            <path d="M36.75,28.5 C36.336,28.5 36,28.83675 36,29.25 L36,41.25 C36,41.66325 36.336,42 36.75,42 L39.75,42 C40.164,42 40.5,41.66325 40.5,41.25 L40.5,29.25 C40.5,28.83675 40.164,28.5 39.75,28.5 L36.75,28.5 Z M39.75,43.5 L36.75,43.5 C35.5095,43.5 34.5,42.4905 34.5,41.25 L34.5,29.25 C34.5,28.0095 35.5095,27 36.75,27 L39.75,27 C40.9905,27 42,28.0095 42,29.25 L42,41.25 C42,42.4905 40.9905,43.5 39.75,43.5 Z" id="Fill-646"></path>
            <path d="M41.25,42 L41.25,40.5 C44.14425,40.5 46.5,38.145 46.5,35.25 C46.5,32.355 44.14425,30 41.25,30 L41.25,28.5 C44.97225,28.5 48,31.5285 48,35.25 C48,38.9715 44.97225,42 41.25,42" id="Fill-647"></path>
            <path d="M46.5,31.5 L45,31.5 L45,27.1215 L44.289,24.987 L45.711,24.513 L46.461,26.763 C46.4865,26.8395 46.5,26.91975 46.5,27 L46.5,31.5" id="Fill-648"></path>
            <path d="M44.25,20.25 L42.75,20.25 C42.75,9.91125 34.33875,1.5 24,1.5 C13.66125,1.5 5.25,9.91125 5.25,20.25 L3.75,20.25 C3.75,9.084 12.834,0 24,0 C35.166,0 44.25,9.084 44.25,20.25" id="Fill-649"></path>
            <path d="M41.25,20.25 L39.75,20.25 C39.75,11.565 32.68425,4.5 24,4.5 C15.31575,4.5 8.25,11.565 8.25,20.25 L6.75,20.25 C6.75,10.7385 14.48775,3 24,3 C33.51225,3 41.25,10.7385 41.25,20.25" id="Fill-650"></path>
        </g>
    </g>
</svg>