<?xml version="1.0" encoding="UTF-8"?>
<svg width="98px" height="81px" viewBox="0 0 98 81" version="1.1" xmlns="http://www.w3.org/2000/svg" xmlns:xlink="http://www.w3.org/1999/xlink">
    <!-- Generator: Sketch 48.2 (47327) - http://www.bohemiancoding.com/sketch -->
    <title>Untitled</title>
    <desc>Created with Sketch.</desc>
    <defs></defs>
    <g id="Page-1" stroke="none" stroke-width="1" fill="none" fill-rule="evenodd">
        <g id="icons8-speed">
            <path d="M49,0 C21.9391053,0 0,22.2279677 0,49.6451613 C0,61.5417097 4.13921053,72.4505806 11.025,81 L14.8908421,73.1612903 L83.1117368,73.1612903 L86.975,81 C93.8607895,72.4505806 98,61.5417097 98,49.6451613 C98,22.2279677 76.0608947,0 49,0 Z" id="Shape" fill="#7986CB" fill-rule="nonzero"></path>
            <path d="M90.2631579,49.6451613 C90.2631579,26.5575484 71.7875789,7.83870968 49,7.83870968 C26.215,7.83870968 7.73684211,26.5575484 7.73684211,49.6451613 C7.73684211,58.3670323 10.3802632,66.4618065 14.8908421,73.1612903 L11.025,81 L86.975,81 L83.1117368,73.1612903 C87.6197368,66.4618065 90.2631579,58.3670323 90.2631579,49.6451613 Z" id="Shape" fill="#ECEFF1" fill-rule="nonzero"></path>
            <g id="Group" transform="translate(7.736842, 7.225806)" fill="#455A64" fill-rule="nonzero">
                <path d="M0.0799473684,39.8064516 C0.0257894737,40.6739355 0,41.5361935 0,42.4193548 C0,43.3025161 0.0257894737,44.1647742 0.0799473684,45.0322581 L10.4473158,45.0322581 C10.3751053,44.17 10.3157895,43.3025161 10.3157895,42.4193548 C10.3157895,41.5361935 10.3751053,40.6687097 10.4447368,39.8064516 L0.0799473684,39.8064516 Z" id="Shape"></path>
                <path d="M16.0333158,60.4875806 C15.0197895,59.0844516 14.1197368,57.5977097 13.3460526,56.0299677 L4.49768421,61.477871 C5.30489474,63.0247097 6.16884211,64.5088387 7.154,65.9354839 L16.0333158,60.4875806 Z" id="Shape"></path>
                <path d="M23.0686842,17.0950968 C24.4561579,16.0708387 25.9261579,15.1641613 27.4761053,14.3802903 L22.2098947,5.32919355 C20.678,6.14180645 19.1538421,7.072 17.7431579,8.06490323 L23.0686842,17.0950968 Z" id="Shape"></path>
                <path d="M13.23,29.2006774 C13.9624211,27.6120323 14.8005789,26.0860968 15.7728421,24.6542258 L6.88321053,19.2925484 C5.93931579,20.7453226 4.96705263,22.4410968 4.20368421,24.0114516 L13.23,29.2006774 Z" id="Shape"></path>
                <path d="M43.8421053,11.1977742 L43.8421053,0.693903226 C42.9833158,0.639032258 42.1322632,0.612903226 41.2631579,0.612903226 C40.3940526,0.612903226 39.543,0.558032258 38.6842105,0.612903226 L38.6842105,11.1977742 C39.5378421,11.1246129 40.3940526,11.0645161 41.2631579,11.0645161 C42.1322632,11.0645161 42.9884737,11.1246129 43.8421053,11.1977742 Z" id="Shape"></path>
                <path d="M66.4543158,60.748871 L75.4290526,65.9354839 C76.3703684,64.4827097 77.3168421,62.8679355 78.0802105,61.2975806 L68.9945789,56.2024194 C68.2621579,57.7910645 67.4265789,59.317 66.4543158,60.748871 Z" id="Shape"></path>
                <path d="M82.4463684,45.0322581 C82.5005263,44.1647742 82.5263158,43.3025161 82.5263158,42.4193548 C82.5263158,41.5361935 82.5005263,40.6739355 82.4463684,39.8064516 L72.079,39.8064516 C72.1512105,40.6687097 72.2105263,41.5361935 72.2105263,42.4193548 C72.2105263,43.3025161 72.1512105,44.17 72.079,45.0322581 L82.4463684,45.0322581 Z" id="Shape"></path>
                <path d="M63.9862632,7.51880645 C62.5549474,6.56248387 60.9792105,5.64796774 59.4292632,4.87454839 L54.3100526,14.0170968 C55.8806316,14.7591613 57.3867368,15.6083548 58.7974211,16.5934194 L63.9862632,7.51880645 Z" id="Shape"></path>
            </g>
            <rect id="Rectangle-path" fill="#90A4AE" fill-rule="nonzero" x="38.6842105" y="62.7096774" width="20.6315789" height="5.22580645"></rect>
            <g id="Group" transform="translate(40.684211, 31.354839)">
                <path d="M8.31578947,18.2903226 L39.2631579,0" id="Shape" stroke="#FF1744" stroke-width="5.15625"></path>
                <path d="M8.02436842,10.2033871 C12.2177368,10.2033871 15.6167895,13.6498065 15.6167895,17.8905484 C15.6167895,22.1469677 12.2203158,25.5881613 8.02436842,25.5881613 C3.83357895,25.5881613 0.437105263,22.1469677 0.437105263,17.8905484 C0.437105263,13.6524194 3.83357895,10.2033871 8.02436842,10.2033871 Z" id="Shape" fill="#FF1744" fill-rule="nonzero"></path>
            </g>
        </g>
    </g>
</svg>