<?xml version="1.0" encoding="UTF-8"?>
<svg width="41px" height="42px" viewBox="0 0 41 42" version="1.1" xmlns="http://www.w3.org/2000/svg" xmlns:xlink="http://www.w3.org/1999/xlink">
    <!-- Generator: Sketch 48.2 (47327) - http://www.bohemiancoding.com/sketch -->
    <title>Page 1</title>
    <desc>Created with Sketch.</desc>
    <defs>
        <polygon id="path-1" points="3.67787971e-05 41.106383 39.8928947 41.106383 39.8928947 0.347997984 3.67787971e-05 0.347997984"></polygon>
        <polygon id="path-3" points="4.28712821 1.68689872 4.28712821 0.0401412766 0.258825641 0.0401412766 0.258825641 1.68689872 4.28712821 1.68689872"></polygon>
    </defs>
    <g id="Page-1" stroke="none" stroke-width="1" fill="none" fill-rule="evenodd">
        <g>
            <path d="M11.5482265,32.8686975 C11.4327985,33.1349211 11.6972133,33.397858 11.6972133,33.397858 C12.8334226,34.8085874 17.8764807,36.5998449 23.3502731,35.288082 C31.7108705,33.284649 33.4776925,27.4299211 33.6772022,26.6020352 C33.7181367,26.4344129 33.7513268,26.1619811 33.5931205,26.0002018 C33.4596223,25.8639859 33.2719136,25.8617948 33.0111866,25.9227815 C27.2040176,27.2747153 17.5423666,30.1962362 11.9715852,32.5575555 C11.7318786,32.6598087 11.6230887,32.6981537 11.5482265,32.8686975 M30.0060034,6.41615168 C30.1044675,6.18023887 29.9068017,5.94797795 29.9068017,5.94797795 C29.9068017,5.94797795 28.3579283,3.34125093 22.8800794,2.76132903 C19.9468081,2.45055225 15.9540338,3.0396039 13.1542607,4.53286627 C8.08317537,7.24002057 7.32385862,11.6957051 7.32385862,11.6957051 C7.29509383,11.804897 7.24715251,12.1394111 7.36110534,12.2803745 C7.47727084,12.4246246 7.6461718,12.4217031 7.85490093,12.3530473 C9.64569362,11.7545007 14.9800874,10.0015882 18.3466744,9.11709775 C23.1371186,7.859383 27.073101,7.09321415 29.5996085,6.66703729 C29.7773602,6.63672651 29.9392543,6.57902647 30.0060034,6.41615168" id="Fill-1" fill="#FBBF00"></path>
            <g id="Group-5">
                <mask id="mask-2" fill="white">
                    <use xlink:href="#path-1"></use>
                </mask>
                <g id="Clip-4"></g>
                <path d="M36.4088392,26.8324078 C33.5496555,33.1299778 28.0629946,37.5124952 20.8723719,37.6123765 C15.6365424,37.6852141 11.0149187,35.925933 7.67761068,32.8602623 L5.65955808,33.7058278 L5.6621326,30.6415993 C3.46349611,27.7331424 2.18911078,24.0548423 2.18911078,19.8764146 C2.18911078,9.17288936 10.5492992,0.736345129 22.211488,0.736345129 C24.1155263,0.736345129 25.8341995,1.02697447 27.1332266,1.31544031 C25.134299,0.687666517 23.1478761,0.347997984 20.9371026,0.347997984 C8.42274911,0.347997984 0.000404566769,10.2982667 3.67787971e-05,20.5575545 C-0.000331009174,31.7395725 8.94684697,41.106419 20.6895813,41.106419 C31.9052755,41.106419 37.9575944,33.3538994 39.8928947,28.6894067 L36.4088392,26.8324078 Z" id="Fill-3" fill="#0058A2" mask="url(#mask-2)"></path>
            </g>
            <path d="M26.6590628,12.3112004 L23.8334398,12.9339315 C23.8334398,12.9339315 23.8308221,13.2228235 23.8304481,13.6969401 C23.8334398,14.0496277 24.0907226,14.2805239 24.4583228,14.2058541 C24.6912984,14.1590949 24.8779032,14.1184978 24.8779032,14.1184978 L24.8820167,14.8778817 C24.8853823,15.1794604 24.4190573,15.376284 23.9355302,15.3657722 C23.2567973,15.3494609 22.88097,14.838372 22.8716211,13.8658531 C22.8925627,12.5884933 23.5125843,11.8396212 24.3573543,11.6286611 C24.7795523,11.5242685 25.1632328,11.5764648 25.460155,11.6127123 C26.1901201,11.7276166 26.6082046,11.3865282 26.6231629,10.8029444 C26.6392431,10.1776761 26.0659662,9.79200333 24.8393855,9.83296294 C22.1790517,9.92249411 20.8182203,11.7754633 20.8182203,13.9869196 C20.8182203,16.2520221 22.3454628,17.2524515 24.2077713,16.9262245 C25.2608357,16.7188892 25.7843762,16.3883125 26.147489,16.0805717 C26.5098538,15.7706561 26.6590628,15.3099512 26.6601847,14.9159415 L26.6590628,12.3112004 Z M17.4963556,15.0177968 C17.4985994,15.0177968 18.6193501,14.4559615 18.6066355,13.5642744 C18.5961647,12.8038031 17.8729309,12.9701789 17.4967296,13.1042944 L17.4963556,15.0177968 Z M17.4997212,16.0501239 C17.4997212,16.0501239 17.4956077,17.3347332 17.4944858,17.8519841 C17.4888765,18.3366124 17.1467053,18.6878501 16.7140365,18.8487888 C16.7140365,18.8629253 16.7140365,18.8324774 16.7140365,18.8487888 C16.3527935,18.9687678 15.5839369,19.2239498 15.5839369,19.2239498 L15.5869285,12.3271493 C15.5869285,12.3271493 17.1743782,11.7917746 18.1085241,11.5808145 C19.5591053,11.2538626 20.5912281,11.892905 20.5725302,13.0296247 C20.5628073,14.1101609 19.940542,14.7680519 19.3811015,15.2167952 L20.6106739,16.3600395 C20.9887449,16.7152644 21.014548,17.3557567 20.5897323,17.7425169 C20.3376849,17.9716007 19.6638134,18.2093839 19.1369073,17.691408 L17.4997212,16.0501239 Z M15.0618922,13.401161 C15.0618922,12.7827796 14.6224921,12.6174913 14.0914724,12.7653809 C13.6617952,12.8842725 13.1610661,13.0738466 13.1610661,13.0738466 L13.1577004,17.6424739 C13.152839,18.0966544 13.0806652,18.6657392 12.501779,18.8071042 C12.0582653,18.9151216 11.8481012,18.6276794 11.8473533,18.1760363 L11.840996,14.4363879 C11.840996,13.8136568 11.3952386,13.6280699 10.8660888,13.796983 C10.2696265,13.9905443 9.91324498,14.1286471 9.91324498,14.1286471 C9.91324498,14.1286471 9.91848039,17.365181 9.91137519,18.6577647 C9.90352209,20.1739952 10.9827635,20.9312042 12.6266808,20.4607124 C14.076888,20.0445918 15.045438,19.2576599 15.063388,17.238315 L15.0618922,13.401161 Z M6.48742012,18.2420066 C6.62428857,18.1905352 6.7252571,18.1463134 6.84043602,18.0919422 C7.25777261,17.8940312 7.5554428,17.5304694 7.55918238,17.0556279 C7.56292195,16.5173534 7.10482399,16.3778008 6.48779408,16.6873539 L6.48742012,18.2420066 L7.72708931,19.8571925 C7.7192362,19.3015193 7.27310487,18.9992156 6.50275238,19.3736517 L6.50050863,21.1617379 C6.50050863,21.1617379 6.75031226,21.0544455 6.93355144,20.9718013 C7.3837963,20.7691781 7.73718616,20.4048914 7.72708931,19.8571925 L6.48742012,18.2420066 Z M9.74982555,19.6020106 C9.77450674,21.0134859 8.72592985,21.7638079 7.35986302,22.3133191 L4.56228679,23.4652627 L4.55555556,16.1168192 C4.55555556,16.1168192 6.31913923,15.419056 6.8942859,15.2178827 C8.52922819,14.6415484 9.49029902,15.3353244 9.49029902,16.3941121 C9.49029902,17.1020246 9.17841845,17.7008323 8.50080742,18.2304074 C9.1683216,18.3376998 9.73711099,18.8683624 9.74982555,19.6020106 Z M13.9938695,21.2200963 C13.1199307,20.8365984 12.3712678,21.2654056 12.052282,21.7402471 L9.36801491,26.1646096 L9.36315347,22.5964116 L6.19947283,23.8679718 L6.18937597,33.9574468 L8.41778885,33.0512608 C8.41778885,33.0512608 8.85606707,32.9301944 9.11970712,32.5282102 C9.36240555,32.1584863 9.35343057,31.5364803 9.35343057,31.5364803 L9.35642223,28.3383686 L11.8477272,30.9007002 C12.3948271,31.4512988 13.399651,31.731854 14.2866782,31.0391654 C15.0891911,30.4113597 14.9650372,29.3416978 14.51741,28.8625066 L12.2474878,26.6474255 C12.2474878,26.6474255 14.244795,23.5964785 14.5716338,23.0853896 C15.0050506,22.4086499 14.7870334,21.5695216 13.9938695,21.2200963 Z M18.7154572,19.2214124 C18.7154572,19.2214124 17.7641092,19.4918183 16.9903911,19.7618618 C15.9836974,20.1145494 15.4051852,20.6781971 15.4051852,22.1538304 C15.4051852,23.5080347 15.4018195,30.5599742 15.4018195,30.5599742 C15.4018195,30.5599742 16.2828635,30.2681823 17.1048221,29.9687785 C18.2715696,29.5428711 18.7120915,28.9592873 18.7120915,27.7714587 C18.7120915,26.7500058 18.7154572,19.2214124 18.7154572,19.2214124 Z M19.6724145,29.1093517 C19.6724145,29.1093517 21.0306282,28.6562587 21.1491727,28.616749 C22.2415026,28.2520997 22.6390195,27.6228441 22.6337841,26.5325211 C22.6199476,25.3504921 22.6177039,23.0447924 22.6177039,23.0447924 L25.777645,26.5720309 C26.2910886,27.0856571 26.9350435,27.129879 27.5221568,26.9620533 C28.1317076,26.7895155 28.63842,26.2508785 28.6537523,25.4889573 C28.6589877,22.9411248 28.6511346,16.7221514 28.6511346,16.7221514 C28.6511346,16.7221514 27.8359072,16.8899771 27.1582961,17.0752015 C26.3782207,17.2905113 25.7787668,17.7729647 25.7787668,19.0445249 C25.7787668,19.4947181 25.777271,22.0780732 25.777271,22.0780732 C25.777271,22.0780732 23.9994769,19.9188132 22.8357211,18.7907929 C22.2138298,18.1883604 21.1854466,18.5486599 21.1854466,18.5486599 L19.6697967,18.9919661 L19.6724145,29.1093517 Z M30.6110459,15.2885652 C31.0295044,15.2001214 31.2894049,14.9152165 31.2894049,14.4215264 C31.2894049,13.974233 31.2916486,13.6349569 31.2916486,13.6349569 L29.0213525,14.1159605 L29.026214,12.8212019 C29.026214,12.8212019 30.1391116,12.592843 30.4480005,12.5279601 C30.8357944,12.4464034 31.0392273,12.2401554 31.0392273,11.8106233 C31.0392273,11.4086392 31.0366096,11.0613887 31.0366096,11.0613887 L29.02584,11.474972 L29.0254661,10.4491694 C29.0254661,10.4491694 30.0706773,10.2382093 30.6334834,10.12258 C31.0728835,10.0344987 31.217605,9.74234434 31.217605,9.34181012 C31.217605,9.08082855 31.2224665,8.56357758 31.2224665,8.56357758 C30.2191385,8.7346655 28.3119551,9.10656423 27.1231441,9.36827075 L27.1078119,16.0678851 C27.1078119,16.0678851 29.3672632,15.5509966 30.6110459,15.2885652 Z M33.5630666,11.3096837 C33.5645625,11.3085962 34.6707288,10.9008125 34.6576403,10.0413857 C34.6464216,9.31462454 33.9078555,9.44765265 33.5604489,9.5219599 L33.5630666,11.3096837 Z M31.7074894,15.0884793 L31.7101071,8.4740464 C31.7101071,8.4740464 33.7036747,8.13295799 34.2178663,8.06771259 C35.6452621,7.89155003 36.6040892,8.66035824 36.5846434,9.7514062 C36.5764163,10.710151 35.9548989,11.2886601 35.426497,11.6359106 C35.426497,11.6359106 36.3969167,12.6965107 36.6571912,12.9770659 C37.0075894,13.3547642 36.9915092,14.0021435 36.4750739,14.3189461 C35.9657437,14.6295867 35.4627708,14.4664732 35.1703361,14.1543828 L33.5653104,12.3311365 C33.5653104,12.3311365 33.5712937,13.4511824 33.5697979,13.9416103 C33.5645625,14.4280509 33.2743714,14.7847258 32.7527007,14.8894809 L31.7074894,15.0884793 Z M34.0675353,25.4527099 C35.7413692,25.267848 36.8976459,24.6157565 37.5344955,24.0111492 C38.1137557,23.4591007 38.2483804,22.7011667 38.2491283,22.1360691 C38.2726877,21.3081776 38.2491283,18.6914749 38.2491283,18.6914749 L33.8214713,19.6208592 C33.8214713,19.6208592 33.8214713,19.9434615 33.8188536,20.6238259 C33.8270806,21.2860666 34.1576591,21.6470911 34.8741617,21.5202251 C35.0992841,21.4843401 35.4459428,21.3770477 35.4459428,21.3770477 L35.4515521,22.1958774 C35.4481865,22.173404 35.5169947,22.6533201 34.4007315,22.8675425 C32.9404274,23.0901017 32.2770267,22.2190758 32.2598247,20.6807344 C32.2886194,19.029301 33.2504381,18.0781682 34.4175596,17.8179116 C35.7301505,17.5272071 36.4750739,17.8298732 36.9122302,17.8940312 C38.3781437,18.1068037 38.7936105,15.9758166 37.4604519,15.4752395 C36.4732041,15.0910166 35.1938954,15.0210591 33.9744199,15.2559425 C32.3454609,15.5720202 29.1417668,16.8925144 29.1335398,21.1871111 C29.1413929,24.5994452 31.7366581,25.7104292 34.0675353,25.4527099 Z" id="Fill-6" fill="#E30620"></path>
            <path d="M15.4888889,3.57446809 C12.2972799,4.90352155 10.1426089,8.05957283 10.0242877,9.39547708 C9.97795476,9.92695424 10.7257907,10.0037552 10.7962473,9.44054808 C11.4697974,7.00094532 13.5310369,4.7026852 15.4888889,3.57446809" id="Fill-8" fill="#FEFEFE"></path>
            <path d="M26.364642,5.36170213 C28.1543518,5.06371104 29.1374375,5.01855268 29.1553625,4.47557074 C29.1868308,3.56672497 25.3660214,2.5132102 21.8666667,2.70330797 C25.4317463,2.86501275 27.5703958,3.79711372 27.5827441,4.44609612 C27.5887191,4.85765913 27.0649113,5.21919641 26.364642,5.36170213" id="Fill-10" fill="#FEFEFE"></path>
            <path d="M26.4222222,33.9574468 C28.949241,33.0105959 31.3762577,31.2043012 32.7193567,28.4957511 C33.1073798,27.7126548 31.9860082,27.3127227 31.6702713,28.2324595 C30.8837381,30.1579133 29.2683487,32.4169411 26.4222222,33.9574468" id="Fill-12" fill="#FEFEFE"></path>
            <g id="Group-16" transform="translate(36.444444, 25.021277)">
                <mask id="mask-4" fill="white">
                    <use xlink:href="#path-3"></use>
                </mask>
                <g id="Clip-15"></g>
                <path d="M3.4652359,1.68689872 L3.84755214,0.353622128 L3.84755214,1.68689872 L4.28733846,1.68689872 L4.28733846,0.0401412766 L3.64500513,0.0401412766 L3.24551795,1.30407319 L2.84603077,0.0401412766 L2.20369744,0.0401412766 L2.20369744,1.68689872 L2.64348376,1.68689872 L2.64348376,0.353622128 L3.0258,1.68689872 L3.4652359,1.68689872 Z M0.258825641,0.0401412766 L0.258825641,0.322524255 L0.907466667,0.322524255 L0.907466667,1.68689872 L1.34795385,1.68689872 L1.34795385,0.322524255 L1.97241538,0.322524255 L1.97241538,0.0401412766 L0.258825641,0.0401412766 Z" id="Fill-14" fill="#E30620" mask="url(#mask-4)"></path>
            </g>
        </g>
    </g>
</svg>