<?xml version="1.0" encoding="UTF-8"?>
<svg width="83px" height="27px" viewBox="0 0 83 27" version="1.1" xmlns="http://www.w3.org/2000/svg" xmlns:xlink="http://www.w3.org/1999/xlink">
    <!-- Generator: Sketch 48.2 (47327) - http://www.bohemiancoding.com/sketch -->
    <title>Slice 1</title>
    <desc>Created with Sketch.</desc>
    <defs></defs>
    <g id="Page-1" stroke="none" stroke-width="1" fill="none" fill-rule="evenodd">
        <g id="Svyaznoy">
            <polygon id="Fill-1" fill="#FFFFFE" points="0.010826087 26.8175676 82.8579978 26.8175676 82.8579978 0.0156891892 0.010826087 0.0156891892"></polygon>
            <path d="M31.3750826,9.40785811 L29.7042565,9.40785811 C28.9592413,9.40785811 28.6990543,9.02146622 28.6990543,8.65587162 C28.6990543,8.29045946 28.9592413,7.91373649 29.7042565,7.91373649 L31.3750826,7.91373649 L31.3750826,9.40785811 Z M18.7533087,9.13548649 L18.7533087,7.91373649 L20.469063,7.91373649 C20.8627717,7.91373649 21.3145804,8.02720946 21.3145804,8.50609459 C21.3145804,8.98735135 20.8627717,9.13548649 20.469063,9.13548649 L18.7533087,9.13548649 Z M18.7533087,11.4974392 L18.7533087,10.2076419 L20.5363652,10.2076419 C21.1464152,10.2076419 21.4959174,10.3796757 21.4959174,10.8585608 C21.4959174,11.3368986 21.1464152,11.4974392 20.5363652,11.4974392 L18.7533087,11.4974392 Z M36.9519609,10.322027 L39.2331978,10.322027 C39.9331043,10.322027 40.1360935,10.5493378 40.1360935,10.8353919 C40.1360935,11.2932973 39.6398978,11.4974392 38.8030413,11.4974392 C37.8442109,11.4974392 36.5577109,11.2462297 35.6304565,10.99575 L35.360887,12.5814527 C36.4214826,12.9008919 37.68615,13.2214257 39.4471935,13.2214257 C41.706237,13.2214257 44.0769696,12.6739459 44.0769696,11.1885811 C44.0769696,10.1749865 42.959537,9.72820946 41.9998043,9.66034459 L41.9998043,9.61510135 C42.7673739,9.46568919 43.5452283,8.9297027 43.5452283,8.13046622 C43.5452283,6.77280405 41.6598652,6.2577973 39.6839239,6.2577973 C38.2501891,6.2577973 36.6912326,6.5672027 35.6425457,6.85197973 L35.8578043,8.38131081 C36.7939,8.14232432 37.9784543,7.90260811 38.8611413,7.90260811 C39.6398978,7.90260811 40.0455152,8.05110811 40.0455152,8.48219595 C40.0455152,8.75912838 39.8879957,8.98735135 39.2669391,8.98735135 L36.9519609,8.98735135 L36.9519609,10.322027 Z M60.1419804,11.5082027 C59.3302043,11.5082027 58.1996,11.0637973 58.1996,9.76287162 C58.1996,8.38131081 59.3175739,7.98269595 60.1419804,7.98269595 C60.9669283,7.98269595 62.0821957,8.38131081 62.0821957,9.76287162 C62.0821957,11.0637973 60.9544783,11.5082027 60.1419804,11.5082027 Z M14.5740783,8.73559459 L14.5740783,6.85197973 C13.6612587,6.46485811 12.6100457,6.22258784 11.3688348,6.22258784 C8.95263261,6.22258784 6.3448087,7.14970946 6.3448087,9.774 C6.3448087,12.3072568 8.94252826,13.2668514 11.413763,13.2668514 C12.5874913,13.2668514 13.7283804,13.0510338 14.5740783,12.6859865 L14.5740783,10.8010946 C13.8640674,11.0968176 13.1636196,11.2571757 12.418063,11.2571757 C11.3580087,11.2571757 10.1942043,10.9041689 10.1942043,9.774 C10.1942043,8.67922297 11.1997674,8.25652703 12.2830978,8.25652703 C12.9830043,8.25652703 13.8303261,8.44972297 14.5740783,8.73559459 Z M44.539063,12.9244257 L48.1183478,12.9244257 L48.1183478,10.5493378 L50.5563826,10.5493378 L50.5563826,12.9244257 L54.1473957,12.9244257 L54.1473957,6.5672027 L50.5563826,6.5672027 L50.5563826,8.77043919 L48.1183478,8.77043919 L48.1183478,6.5672027 L44.539063,6.5672027 L44.539063,12.9244257 Z M69.2755891,12.9244257 L73.001387,9.74006757 L73.001387,12.9244257 L76.5126478,12.9244257 L76.5126478,6.5672027 L73.3958174,6.5672027 L69.6692978,9.75174324 L69.6692978,6.5672027 L66.1594804,6.5672027 L66.1594804,12.9244257 L69.2755891,12.9244257 Z M28.7903543,12.9244257 L30.0757717,10.7910608 L31.3750826,10.7910608 L31.3750826,12.9244257 L34.8186804,12.9244257 L34.8186804,6.5672027 C33.3515652,6.40720946 31.2621304,6.34974324 30.6073326,6.34974324 C27.8288174,6.34974324 25.2107087,6.53272297 25.2107087,8.67922297 C25.2107087,9.60251351 26.0122,10.1509054 26.9152761,10.3796757 L25.042363,12.9244257 L28.7903543,12.9244257 Z M15.3095304,12.9244257 C16.9796348,13.0727432 18.3909957,13.1519189 19.9375022,13.1519189 C22.1958239,13.1519189 25.1210326,13.0276824 25.1210326,11.2462297 C25.1210326,10.2076419 23.9682348,9.66034459 22.9753022,9.66034459 L22.9753022,9.59065541 C23.9236674,9.47736486 24.6921391,8.82681081 24.6921391,8.06168919 C24.6921391,6.47525676 22.1958239,6.34974324 19.8480065,6.34974324 C18.2892304,6.34974324 17.0362913,6.40720946 15.3095304,6.5672027 L15.3095304,12.9244257 Z M60.1419804,6.22258784 C57.6794065,6.22258784 54.5084457,7.11522973 54.5084457,9.774 C54.5084457,12.3762162 57.715313,13.2668514 60.1419804,13.2668514 C62.5704522,13.2668514 65.7755152,12.3762162 65.7755152,9.774 C65.7755152,7.11522973 62.6043739,6.22258784 60.1419804,6.22258784 Z" id="Fill-2" fill="#777776"></path>
            <polyline id="Fill-3" fill="#F1AA61" points="72.8887957 6.00731757 70.3138109 3.78200676 70.3138109 8.23372297 72.8887957 6.00731757"></polyline>
            <polygon id="Fill-4" fill="#93B8D7" points="6.7141587 20.3443176 20.6738565 20.3443176 20.6738565 15.8924189 6.7141587 15.8924189"></polygon>
            <polygon id="Fill-5" fill="#F1AA61" points="20.6738565 20.3443176 34.6335543 20.3443176 34.6335543 15.8924189 20.6738565 15.8924189"></polygon>
            <polygon id="Fill-6" fill="#AED284" points="34.6333739 20.3443176 48.5930717 20.3443176 48.5930717 15.8924189 34.6333739 15.8924189"></polygon>
            <polygon id="Fill-7" fill="#FDDA6D" points="48.5932522 20.3443176 62.55295 20.3443176 62.55295 15.8924189 48.5932522 15.8924189"></polygon>
            <polygon id="Fill-8" fill="#A98DB6" points="62.5527696 20.3443176 76.5124674 20.3443176 76.5124674 15.8924189 62.5527696 15.8924189"></polygon>
        </g>
    </g>
</svg>