<?xml version="1.0" encoding="UTF-8"?>
<svg width="46px" height="46px" viewBox="0 0 46 46" version="1.1" xmlns="http://www.w3.org/2000/svg" xmlns:xlink="http://www.w3.org/1999/xlink">
    <!-- Generator: Sketch 48.2 (47327) - http://www.bohemiancoding.com/sketch -->
    <title>Untitled</title>
    <desc>Created with Sketch.</desc>
    <defs></defs>
    <g id="Page-1" stroke="none" stroke-width="1" fill="none" fill-rule="evenodd">
        <path d="M23,0 C10.308594,0 0,10.308594 0,23 C0,35.691406 10.308594,46 23,46 C35.691406,46 46,35.691406 46,23 C46,10.308594 35.691406,0 23,0 Z M23,2 C34.609375,2 44,11.390625 44,23 C44,34.609375 34.609375,44 23,44 C11.390625,44 2,34.609375 2,23 C2,11.390625 11.390625,2 23,2 Z M19.90625,11.96875 C19.863281,11.976563 19.820313,11.988281 19.78125,12 C19.40625,12.066406 19.105469,12.339844 19,12.703125 C18.894531,13.070313 19.003906,13.460938 19.28125,13.71875 L28.5625,23 L19.28125,32.28125 C18.882813,32.679688 18.882813,33.320313 19.28125,33.71875 C19.679688,34.117188 20.320313,34.117188 20.71875,33.71875 L30.71875,23.71875 C30.914063,23.53125 31.023438,23.269531 31.023438,23 C31.023438,22.730469 30.914063,22.46875 30.71875,22.28125 L20.71875,12.28125 C20.511719,12.058594 20.210938,11.945313 19.90625,11.96875 Z" id="Shape-Copy-3" fill="#FF5177" fill-rule="nonzero" transform="translate(23.000000, 23.000000) scale(-1, 1) translate(-23.000000, -23.000000) "></path>
    </g>
</svg>