<?xml version="1.0" encoding="UTF-8"?>
<svg width="45px" height="48px" viewBox="0 0 45 48" version="1.1" xmlns="http://www.w3.org/2000/svg" xmlns:xlink="http://www.w3.org/1999/xlink">
    <!-- Generator: Sketch 48.2 (47327) - http://www.bohemiancoding.com/sketch -->
    <title>Untitled</title>
    <desc>Created with Sketch.</desc>
    <defs></defs>
    <g id="Page-1" stroke="none" stroke-width="1" fill="none" fill-rule="evenodd">
        <g id="Group-2" fill="#323937">
            <path d="M3.75,20.25 L41.25,20.25 L41.25,18.3105 L35.6895,12.75 L31.5,12.75 C31.30125,12.75 31.11,12.67125 30.96975,12.53025 L20.25,1.8105 L3.75,18.3105 L3.75,20.25 Z M42,21.75 L3,21.75 C2.586,21.75 2.25,21.41475 2.25,21 L2.25,18 C2.25,17.8005 2.32875,17.61 2.46975,17.46975 L19.71975,0.21975 C20.013,-0.0735 20.487,-0.0735 20.78025,0.21975 L31.8105,11.25 L36,11.25 C36.19875,11.25 36.39,11.32875 36.53025,11.46975 L42.53025,17.46975 C42.67125,17.61 42.75,17.8005 42.75,18 L42.75,21 C42.75,21.41475 42.414,21.75 42,21.75 Z" id="Fill-321"></path>
            <polygon id="Fill-322" points="3 18.75 42 18.75 42 17.25 3 17.25"></polygon>
            <polygon id="Fill-323" points="5.25 39 6.75 39 6.75 23.25 5.25 23.25"></polygon>
            <polygon id="Fill-324" points="8.25 39 9.75 39 9.75 23.25 8.25 23.25"></polygon>
            <polygon id="Fill-325" points="12.75 39 14.25 39 14.25 23.25 12.75 23.25"></polygon>
            <polygon id="Fill-326" points="15.75 39 17.25 39 17.25 23.25 15.75 23.25"></polygon>
            <polygon id="Fill-327" points="20.25 39 21.75 39 21.75 23.25 20.25 23.25"></polygon>
            <polygon id="Fill-328" points="23.25 39 24.75 39 24.75 23.25 23.25 23.25"></polygon>
            <polygon id="Fill-329" points="27.75 39 29.25 39 29.25 23.25 27.75 23.25"></polygon>
            <polygon id="Fill-330" points="30.75 39 32.25 39 32.25 23.25 30.75 23.25"></polygon>
            <polygon id="Fill-331" points="35.25 39 36.75 39 36.75 23.25 35.25 23.25"></polygon>
            <polygon id="Fill-332" points="38.25 39 39.75 39 39.75 23.25 38.25 23.25"></polygon>
            <polygon id="Fill-333" points="10.5 15.75 34.5 15.75 34.5 14.25 10.5 14.25"></polygon>
            <path d="M1.5,46.5 L43.5,46.5 L43.5,45 L41.25,45 C40.836,45 40.5,44.66475 40.5,44.25 L40.5,42 L4.5,42 L4.5,44.25 C4.5,44.66475 4.164,45 3.75,45 L1.5,45 L1.5,46.5 Z M44.25,48 L0.75,48 C0.336,48 0,47.66475 0,47.25 L0,44.25 C0,43.83525 0.336,43.5 0.75,43.5 L3,43.5 L3,41.25 C3,40.83525 3.336,40.5 3.75,40.5 L41.25,40.5 C41.664,40.5 42,40.83525 42,41.25 L42,43.5 L44.25,43.5 C44.664,43.5 45,43.83525 45,44.25 L45,47.25 C45,47.66475 44.664,48 44.25,48 Z" id="Fill-334"></path>
            <polygon id="Fill-335" points="6 45 39 45 39 43.5 6 43.5"></polygon>
            <path d="M20.25,8.25 C19.42275,8.25 18.75,8.92275 18.75,9.75 C18.75,10.57725 19.42275,11.25 20.25,11.25 C21.07725,11.25 21.75,10.57725 21.75,9.75 C21.75,8.92275 21.07725,8.25 20.25,8.25 Z M20.25,12.75 C18.5955,12.75 17.25,11.4045 17.25,9.75 C17.25,8.0955 18.5955,6.75 20.25,6.75 C21.9045,6.75 23.25,8.0955 23.25,9.75 C23.25,11.4045 21.9045,12.75 20.25,12.75 Z" id="Fill-336"></path>
        </g>
    </g>
</svg>