<?xml version="1.0" encoding="UTF-8"?>
<svg width="48px" height="42px" viewBox="0 0 48 42" version="1.1" xmlns="http://www.w3.org/2000/svg" xmlns:xlink="http://www.w3.org/1999/xlink">
    <!-- Generator: Sketch 48.2 (47327) - http://www.bohemiancoding.com/sketch -->
    <title>Slice 1</title>
    <desc>Created with Sketch.</desc>
    <defs></defs>
    <g id="Page-1" stroke="none" stroke-width="1" fill="none" fill-rule="evenodd">
        <g id="Group-6" fill="#323937">
            <path d="M2.25,19.5 C1.83675,19.5 1.5,19.83675 1.5,20.25 L1.5,29.25 C1.5,29.66325 1.83675,30 2.25,30 L45.75,30 C46.164,30 46.5,29.66325 46.5,29.25 L46.5,20.25 C46.5,19.83675 46.164,19.5 45.75,19.5 L2.25,19.5 Z M45.75,31.5 L2.25,31.5 C1.0095,31.5 0,30.4905 0,29.25 L0,20.25 C0,19.0095 1.0095,18 2.25,18 L45.75,18 C46.9905,18 48,19.0095 48,20.25 L48,29.25 C48,30.4905 46.9905,31.5 45.75,31.5 Z" id="Fill-644"></path>
            <path d="M37.5,27 L43.5,27 L43.5,22.5 L37.5,22.5 L37.5,27 Z M44.25,28.5 L36.75,28.5 C36.33525,28.5 36,28.164 36,27.75 L36,21.75 C36,21.336 36.33525,21 36.75,21 L44.25,21 C44.66475,21 45,21.336 45,21.75 L45,27.75 C45,28.164 44.66475,28.5 44.25,28.5 Z" id="Fill-645"></path>
            <path d="M4.5,27 L10.5,27 L10.5,22.5 L4.5,22.5 L4.5,27 Z M11.25,28.5 L3.75,28.5 C3.336,28.5 3,28.164 3,27.75 L3,21.75 C3,21.336 3.336,21 3.75,21 L11.25,21 C11.664,21 12,21.336 12,21.75 L12,27.75 C12,28.164 11.664,28.5 11.25,28.5 Z" id="Fill-646"></path>
            <polygon id="Fill-647" points="13.5 22.5 34.5 22.5 34.5 21 13.5 21"></polygon>
            <polygon id="Fill-648" points="13.5 25.5 34.5 25.5 34.5 24 13.5 24"></polygon>
            <polygon id="Fill-649" points="13.5 28.5 34.5 28.5 34.5 27 13.5 27"></polygon>
            <path d="M6.29025,18 L41.709,18 L37.70925,6 L10.29075,6 L6.29025,18 Z M42.7500073,19.5 L5.25000014,19.5 C5.0092501,19.5 4.78275005,19.3845 4.64175003,19.188 C4.50075,18.993 4.46249999,18.74175 4.53825001,18.513 L9.03825087,5.013 C9.14100089,4.70625 9.42675094,4.5 9.750001,4.5 L38.2500064,4.5 C38.5732565,4.5 38.8597566,4.70625 38.9610066,5.013 L43.4610074,18.513 C43.5382574,18.74175 43.4992574,18.993 43.3590074,19.188 C43.2172574,19.3845 42.9907573,19.5 42.7500073,19.5 Z" id="Fill-650"></path>
            <polygon id="Fill-651" points="9 9 39 9 39 7.5 9 7.5"></polygon>
            <path d="M36,40.5 L43.5,40.5 L43.5,36 L36,36 L36,40.5 Z M44.25,42 L35.25,42 C34.83525,42 34.5,41.66475 34.5,41.25 L34.5,35.25 C34.5,34.83525 34.83525,34.5 35.25,34.5 L44.25,34.5 C44.66475,34.5 45,34.83525 45,35.25 L45,41.25 C45,41.66475 44.66475,42 44.25,42 Z" id="Fill-652"></path>
            <path d="M4.5,40.5 L12,40.5 L12,36 L4.5,36 L4.5,40.5 Z M12.75,42 L3.75,42 C3.336,42 3,41.66475 3,41.25 L3,35.25 C3,34.83525 3.336,34.5 3.75,34.5 L12.75,34.5 C13.164,34.5 13.5,34.83525 13.5,35.25 L13.5,41.25 C13.5,41.66475 13.164,42 12.75,42 Z" id="Fill-653"></path>
            <path d="M30,3 L28.5,3 L28.5,1.5 L19.5,1.5 L19.5,3 L18,3 L18,0.75 C18,0.336 18.336,0 18.75,0 L29.25,0 C29.66475,0 30,0.336 30,0.75 L30,3" id="Fill-654"></path>
            <path d="M45,36 L3,36 C1.3455,36 0,34.6545 0,33 L1.5,33 C1.5,33.82725 2.17275,34.5 3,34.5 L45,34.5 C45.82725,34.5 46.5,33.82725 46.5,33 L48,33 C48,34.6545 46.6545,36 45,36" id="Fill-655"></path>
            <polygon id="Fill-656" points="0 42 48 42 48 40.5 0 40.5"></polygon>
            <polygon id="Fill-657" points="31.5 35.25 33 35.25 33 30.75 31.5 30.75"></polygon>
            <polygon id="Fill-658" points="15 35.25 16.5 35.25 16.5 30.75 15 30.75"></polygon>
        </g>
    </g>
</svg>