<?xml version="1.0" encoding="UTF-8"?>
<svg width="48px" height="48px" viewBox="0 0 48 48" version="1.1" xmlns="http://www.w3.org/2000/svg" xmlns:xlink="http://www.w3.org/1999/xlink">
    <!-- Generator: Sketch 48.2 (47327) - http://www.bohemiancoding.com/sketch -->
    <title>Untitled</title>
    <desc>Created with Sketch.</desc>
    <defs></defs>
    <g id="Page-1" stroke="none" stroke-width="1" fill="none" fill-rule="evenodd">
        <g id="Group-7" fill="#323937">
            <path d="M45,31.5 L24,31.5 L24,30 L45,30 C45.82725,30 46.5,29.32725 46.5,28.5 C46.5,27.67275 45.82725,27 45,27 L24,27 L24,25.5 L45,25.5 C46.6545,25.5 48,26.8455 48,28.5 C48,30.1545 46.6545,31.5 45,31.5" id="Fill-485"></path>
            <polygon id="Fill-486" points="24 24 48 24 48 22.5 24 22.5"></polygon>
            <path d="M47.25,21 L24,21 L24,19.5 L46.497,19.5 C46.44375,14.9265 45.4515,7.5 27,7.5 C22.212,7.5 18.25425,8.01375 15.2385,9.0255 L14.7615,7.6035 C17.93175,6.53925 22.04925,6 27,6 C48,6 48,15.62475 48,20.25 C48,20.664 47.664,21 47.25,21" id="Fill-487"></path>
            <path d="M45,37.5 C43.7865,37.5 43.233,36.393 42.82875,35.58525 C42.5115,34.95 42.2655,34.5 42,34.5 C41.7345,34.5 41.4885,34.95 41.17125,35.58525 C40.767,36.393 40.2135,37.5 39,37.5 C37.7865,37.5 37.233,36.393 36.82875,35.58525 C36.5115,34.95 36.2655,34.5 36,34.5 C35.7345,34.5 35.4885,34.95 35.17125,35.58525 C34.767,36.393 34.2135,37.5 33,37.5 C31.7865,37.5 31.233,36.393 30.82875,35.58525 C30.5115,34.95 30.2655,34.5 30,34.5 C29.7345,34.5 29.4885,34.95 29.17125,35.58525 C28.767,36.393 28.2135,37.5 27,37.5 C25.7865,37.5 25.233,36.393 24.82875,35.58525 C24.5115,34.95 24.2655,34.5 24,34.5 L24,33 C25.2135,33 25.767,34.107 26.17125,34.91475 C26.4885,35.55 26.7345,36 27,36 C27.2655,36 27.5115,35.55 27.82875,34.91475 C28.233,34.107 28.7865,33 30,33 C31.2135,33 31.767,34.107 32.17125,34.91475 C32.4885,35.55 32.7345,36 33,36 C33.2655,36 33.5115,35.55 33.82875,34.91475 C34.233,34.107 34.7865,33 36,33 C37.2135,33 37.767,34.107 38.17125,34.91475 C38.4885,35.55 38.7345,36 39,36 C39.2655,36 39.5115,35.55 39.82875,34.91475 C40.233,34.107 40.7865,33 42,33 C43.2135,33 43.767,34.107 44.17125,34.91475 C44.4885,35.55 44.7345,36 45,36 C45.2655,36 45.5115,35.55 45.82875,34.91475 C46.233,34.107 46.7865,33 48,33 L48,34.5 C47.7345,34.5 47.4885,34.95 47.17125,35.58525 C46.767,36.393 46.2135,37.5 45,37.5" id="Fill-488"></path>
            <path d="M43.5,48 L24,48 L24,46.5 L43.5,46.5 C45.1545,46.5 46.5,45.1545 46.5,43.5 L46.5,40.5 L24,40.5 L24,39 L47.25,39 C47.664,39 48,39.336 48,39.75 L48,43.5 C48,45.98175 45.98175,48 43.5,48" id="Fill-489"></path>
            <path d="M1.5,46.5 L21,46.5 L21,45.3105 L19.71975,44.03025 C19.4265,43.737 19.4265,43.263 19.71975,42.96975 L21,41.6895 L21,18.3105 L19.71975,17.03025 C19.4265,16.737 19.4265,16.263 19.71975,15.96975 L21,14.6895 L21,13.5 L1.5,13.5 L1.5,14.6895 L2.78025,15.96975 C3.0735,16.263 3.0735,16.737 2.78025,17.03025 L1.5,18.3105 L1.5,41.6895 L2.78025,42.96975 C3.0735,43.263 3.0735,43.737 2.78025,44.03025 L1.5,45.3105 L1.5,46.5 Z M21.75,48 L0.75,48 C0.336,48 0,47.664 0,47.25 L0,45 C0,44.80125 0.07875,44.61 0.21975,44.46975 L1.1895,43.5 L0.21975,42.53025 C0.07875,42.39 0,42.19875 0,42 L0,18 C0,17.80125 0.07875,17.61 0.21975,17.46975 L1.1895,16.5 L0.21975,15.53025 C0.07875,15.39 0,15.19875 0,15 L0,12.75 C0,12.336 0.336,12 0.75,12 L21.75,12 C22.164,12 22.5,12.336 22.5,12.75 L22.5,15 C22.5,15.19875 22.42125,15.39 22.28025,15.53025 L21.3105,16.5 L22.28025,17.46975 C22.42125,17.61 22.5,17.80125 22.5,18 L22.5,42 C22.5,42.19875 22.42125,42.39 22.28025,42.53025 L21.3105,43.5 L22.28025,44.46975 C22.42125,44.61 22.5,44.80125 22.5,45 L22.5,47.25 C22.5,47.664 22.164,48 21.75,48 Z" id="Fill-490"></path>
            <polygon id="Fill-491" points="4.5 44.25 18 44.25 18 42.75 4.5 42.75"></polygon>
            <polygon id="Fill-492" points="4.5 17.25 18 17.25 18 15.75 4.5 15.75"></polygon>
            <path d="M13.5,12.75 L12,12.75 L12,9.16275 L8.517,1.5 L7.16475,1.5 L10.4325,8.6895 C10.47675,8.787 10.5,8.89275 10.5,9 L10.5,12.75 L9,12.75 L9,9.16275 L5.3175,1.0605 C5.21175,0.828 5.23125,0.55875 5.36925,0.3435 C5.50725,0.12975 5.745,0 6,0 L9,0 C9.294,0 9.561,0.17175 9.6825,0.4395 L13.4325,8.6895 C13.47675,8.787 13.5,8.89275 13.5,9 L13.5,12.75" id="Fill-493"></path>
            <path d="M11.25,23.25 C8.355,23.25 6,25.605 6,28.5 C6,31.395 8.355,33.75 11.25,33.75 C14.145,33.75 16.5,31.395 16.5,28.5 C16.5,25.605 14.145,23.25 11.25,23.25 Z M11.25,35.25 C7.5285,35.25 4.5,32.2215 4.5,28.5 C4.5,24.7785 7.5285,21.75 11.25,21.75 C14.9715,21.75 18,24.7785 18,28.5 C18,32.2215 14.9715,35.25 11.25,35.25 Z" id="Fill-494"></path>
            <polygon id="Fill-495" points="8.25 38.25 14.25 38.25 14.25 36.75 8.25 36.75"></polygon>
        </g>
    </g>
</svg>