<?xml version="1.0" encoding="UTF-8"?>
<svg width="164px" height="39px" viewBox="0 0 164 39" version="1.1" xmlns="http://www.w3.org/2000/svg" xmlns:xlink="http://www.w3.org/1999/xlink">
    <!-- Generator: Sketch 48.2 (47327) - http://www.bohemiancoding.com/sketch -->
    <title>Untitled</title>
    <desc>Created with Sketch.</desc>
    <defs></defs>
    <g id="Page-1" stroke="none" stroke-width="1" fill="none" fill-rule="evenodd">
        <g id="logo">
            <path d="M27.7581824,36.4954657 C27.7554565,36.4969768 27.752729,36.4984882 27.75,36.5 L19.4995143,23.2645975 L17.2622115,23.2645975 L17.2622115,28.8446938 L12.1558969,28.8446938 L12.1558969,10.4198473 L20.8682172,10.4198473 C22.2895696,10.4198473 23.4915595,10.5953203 24.4742229,10.9462715 C25.4568863,11.2972227 26.2552883,11.7885471 26.8694529,12.4202592 C27.9574017,13.4731129 28.5013679,14.9032176 28.5013679,16.7106163 C28.5013679,18.1846112 28.1591956,19.3602801 27.4748407,20.2903008 C26.7904859,21.2203215 25.8692528,21.9309871 24.7111138,22.4223188 C26.5857598,25.7748517 28.2627113,28.5304093 29.741968,30.6889917 C32.8619803,27.9010003 34.7475,23.8712299 34.7475,19.5 C34.7475,11.2157288 28.0317712,4.5 19.7475,4.5 C11.4632288,4.5 4.7475,11.2157288 4.7475,19.5 C4.7475,27.7842712 11.4632288,34.5 19.7475,34.5 C20.0147668,34.5 20.2809587,34.493055 20.5459176,34.479227 C21.0153059,35.1597423 21.9103497,36.5632456 23.231049,38.6897369 C22.1007261,38.8935771 20.9365413,39 19.7475,39 C8.97794738,39 0.2475,30.2695526 0.2475,19.5 C0.2475,8.73044738 8.97794738,0 19.7475,0 C30.5170526,0 39.2475,8.73044738 39.2475,19.5 C39.2475,27.2640446 34.709994,33.9682978 28.142155,37.1055867 C28.0098188,36.8956104 27.8818279,36.6922367 27.7581824,36.4954657 Z M20.6313263,19.2637736 C21.5087044,19.2637736 22.1842753,19.0663666 22.6580595,18.6715464 C23.1318436,18.2767263 23.3687321,17.7459206 23.3687321,17.0791133 L23.3687321,17.0264709 C23.3687321,16.2894733 23.1230699,15.7411203 22.6317382,15.3813953 C22.1404065,15.0216703 21.4648356,14.8418105 20.6050051,14.8418105 L17.2622115,14.8418105 L17.2622115,19.2637736 L20.6313263,19.2637736 Z" id="Combined-Shape" fill="#EF5E7A" fill-rule="nonzero"></path>
            <path d="M61.8725,18.08 C62.872505,18.08 63.6424973,17.8550022 64.1825,17.405 C64.7225027,16.9549978 64.9925,16.3500038 64.9925,15.59 L64.9925,15.53 C64.9925,14.6899958 64.7125028,14.065002 64.1525,13.655 C63.5924972,13.2449979 62.8225049,13.04 61.8425,13.04 L58.0325,13.04 L58.0325,18.08 L61.8725,18.08 Z M52.2125,8 L62.1425,8 C63.7625081,8 65.1324944,8.199998 66.2525,8.6 C67.3725056,9.000002 68.2824965,9.5599964 68.9825,10.28 C70.2225062,11.480006 70.8425,13.1099897 70.8425,15.17 L70.8425,15.23 C70.8425,16.8500081 70.4525039,18.1899947 69.6725,19.25 C68.8924961,20.3100053 67.8425066,21.1199972 66.5225,21.68 L71.5325,29 L64.8125,29 L60.5825,22.64 L58.0325,22.64 L58.0325,29 L52.2125,29 L52.2125,8 Z M86.1425,20.72 L83.8025,14.75 L81.4325,20.72 L86.1425,20.72 Z M81.0425,7.85 L86.6525,7.85 L95.5925,29 L89.3525,29 L87.8225,25.25 L79.7225,25.25 L78.2225,29 L72.1025,29 L81.0425,7.85 Z M105.8225,23.84 C107.562509,23.84 108.962495,23.3800046 110.0225,22.46 C111.082505,21.5399954 111.6125,20.2300085 111.6125,18.53 L111.6125,18.47 C111.6125,16.7899916 111.082505,15.4850047 110.0225,14.555 C108.962495,13.6249954 107.562509,13.16 105.8225,13.16 L103.4525,13.16 L103.4525,23.84 L105.8225,23.84 Z M97.6325,8 L105.7325,8 C107.612509,8 109.287493,8.25499745 110.7575,8.765 C112.227507,9.27500255 113.467495,9.9899954 114.4775,10.91 C115.487505,11.8300046 116.257497,12.9249936 116.7875,14.195 C117.317503,15.4650064 117.5825,16.8599924 117.5825,18.38 L117.5825,18.44 C117.5825,19.9600076 117.312503,21.3649936 116.7725,22.655 C116.232497,23.9450064 115.452505,25.0599953 114.4325,26 C113.412495,26.9400047 112.157507,27.6749974 110.6675,28.205 C109.177493,28.7350027 107.492509,29 105.6125,29 L97.6325,29 L97.6325,8 Z M132.9425,20.72 L130.6025,14.75 L128.2325,20.72 L132.9425,20.72 Z M127.8425,7.85 L133.4525,7.85 L142.3925,29 L136.1525,29 L134.6225,25.25 L126.5225,25.25 L125.0225,29 L118.9025,29 L127.8425,7.85 Z M154.0925,18.08 C155.092505,18.08 155.862497,17.8550022 156.4025,17.405 C156.942503,16.9549978 157.2125,16.3500038 157.2125,15.59 L157.2125,15.53 C157.2125,14.6899958 156.932503,14.065002 156.3725,13.655 C155.812497,13.2449979 155.042505,13.04 154.0625,13.04 L150.2525,13.04 L150.2525,18.08 L154.0925,18.08 Z M144.4325,8 L154.3625,8 C155.982508,8 157.352494,8.199998 158.4725,8.6 C159.592506,9.000002 160.502497,9.5599964 161.2025,10.28 C162.442506,11.480006 163.0625,13.1099897 163.0625,15.17 L163.0625,15.23 C163.0625,16.8500081 162.672504,18.1899947 161.8925,19.25 C161.112496,20.3100053 160.062507,21.1199972 158.7425,21.68 L163.7525,29 L157.0325,29 L152.8025,22.64 L150.2525,22.64 L150.2525,29 L144.4325,29 L144.4325,8 Z" id="RADAR-Copy-2" fill="#000000"></path>
        </g>
    </g>
</svg>