<?xml version="1.0" encoding="UTF-8"?>
<svg width="48px" height="48px" viewBox="0 0 48 48" version="1.1" xmlns="http://www.w3.org/2000/svg" xmlns:xlink="http://www.w3.org/1999/xlink">
    <!-- Generator: Sketch 48.2 (47327) - http://www.bohemiancoding.com/sketch -->
    <title>Untitled</title>
    <desc>Created with Sketch.</desc>
    <defs></defs>
    <g id="Page-1" stroke="none" stroke-width="1" fill="none" fill-rule="evenodd">
        <g id="Group" fill="#323937">
            <polygon id="Fill-690" points="3 16.5 4.5 16.5 4.5 9 3 9"></polygon>
            <path d="M4.5,19.5 L3,19.5 C1.3455,19.5 0,18.1545 0,16.5 L0,9 L1.5,9 L1.5,16.5 C1.5,17.32725 2.17275,18 3,18 L4.5,18 C5.32725,18 6,17.32725 6,16.5 L6,9 L7.5,9 L7.5,16.5 C7.5,18.1545 6.1545,19.5 4.5,19.5" id="Fill-691"></path>
            <path d="M3.75,39 C2.5095,39 1.5,37.9905 1.5,36.75 L1.5,18.75 L3,18.75 L3,36.75 C3,37.16325 3.336,37.5 3.75,37.5 C4.164,37.5 4.5,37.16325 4.5,36.75 L4.5,18.75 L6,18.75 L6,36.75 C6,37.9905 4.9905,39 3.75,39" id="Fill-692"></path>
            <path d="M42.75,22.9395 L44.78025,24.96975 C44.92125,25.11 45,25.30125 45,25.5 L45,36.75 C45,37.16325 45.336,37.5 45.75,37.5 C46.164,37.5 46.5,37.16325 46.5,36.75 L46.5,10.56225 C44.3745,10.92075 42.75,12.774 42.75,15 L42.75,22.9395 Z M45.75,39 C44.5095,39 43.5,37.9905 43.5,36.75 L43.5,25.8105 L41.46975,23.78025 C41.32875,23.64 41.25,23.44875 41.25,23.25 L41.25,15 C41.25,11.69175 43.94175,9 47.25,9 C47.66475,9 48,9.336 48,9.75 L48,36.75 C48,37.9905 46.9905,39 45.75,39 Z" id="Fill-693"></path>
            <polygon id="Fill-694" points="42 21.75 44.25 21.75 44.25 20.25 42 20.25"></polygon>
            <polygon id="Fill-695" points="42 18.75 44.25 18.75 44.25 17.25 42 17.25"></polygon>
            <polygon id="Fill-696" points="42 15.75 44.25 15.75 44.25 14.25 42 14.25"></polygon>
            <path d="M24,10.5 C16.55625,10.5 10.5,16.55625 10.5,24 C10.5,31.44375 16.55625,37.5 24,37.5 C31.44375,37.5 37.5,31.44375 37.5,24 C37.5,16.55625 31.44375,10.5 24,10.5 Z M24,39 C15.729,39 9,32.271 9,24 C9,15.729 15.729,9 24,9 C32.271,9 39,15.729 39,24 C39,32.271 32.271,39 24,39 Z" id="Fill-697"></path>
            <path d="M24,15 C19.03725,15 15,19.03725 15,24 C15,28.96275 19.03725,33 24,33 C28.96275,33 33,28.96275 33,24 C33,19.03725 28.96275,15 24,15 Z M24,34.5 C18.21,34.5 13.5,29.79 13.5,24 C13.5,18.21 18.21,13.5 24,13.5 C29.79,13.5 34.5,18.21 34.5,24 C34.5,29.79 29.79,34.5 24,34.5 Z" id="Fill-698"></path>
            <path d="M18,24 L16.5,24 C16.5,19.8645 19.8645,16.5 24,16.5 L24,18 C20.69175,18 18,20.69175 18,24" id="Fill-699"></path>
            <path d="M46.5,7.5 L45,7.5 L45,2.7135 L42.75,1.5885 L40.08525,2.92125 C39.8745,3.02625 39.6255,3.02625 39.41475,2.92125 L36.75,1.5885 L34.08525,2.92125 C33.8745,3.02625 33.6255,3.02625 33.41475,2.92125 L30.75,1.5885 L28.08525,2.92125 C27.8745,3.02625 27.6255,3.02625 27.41475,2.92125 L24.75,1.5885 L22.08525,2.92125 C21.8745,3.02625 21.6255,3.02625 21.41475,2.92125 L18.75,1.5885 L16.08525,2.92125 C15.8745,3.02625 15.6255,3.02625 15.41475,2.92125 L12.75,1.5885 L10.08525,2.92125 C9.8745,3.02625 9.6255,3.02625 9.41475,2.92125 L6.75,1.5885 L4.5,2.7135 L4.5,7.5 L3,7.5 L3,2.25 C3,1.96575 3.1605,1.70625 3.41475,1.57875 L6.41475,0.07875 C6.6255,-0.02625 6.8745,-0.02625 7.08525,0.07875 L9.75,1.4115 L12.41475,0.07875 C12.6255,-0.02625 12.8745,-0.02625 13.08525,0.07875 L15.75,1.4115 L18.41475,0.07875 C18.6255,-0.02625 18.8745,-0.02625 19.08525,0.07875 L21.75,1.4115 L24.41475,0.07875 C24.6255,-0.02625 24.8745,-0.02625 25.08525,0.07875 L27.75,1.4115 L30.41475,0.07875 C30.6255,-0.02625 30.8745,-0.02625 31.08525,0.07875 L33.75,1.4115 L36.41475,0.07875 C36.6255,-0.02625 36.8745,-0.02625 37.08525,0.07875 L39.75,1.4115 L42.41475,0.07875 C42.6255,-0.02625 42.8745,-0.02625 43.08525,0.07875 L46.08525,1.57875 C46.3395,1.70625 46.5,1.96575 46.5,2.25 L46.5,7.5" id="Fill-700"></path>
            <path d="M42.75,48 C42.63525,48 42.51975,47.97375 42.41475,47.92125 L39.75,46.5885 L37.08525,47.92125 C36.8745,48.02625 36.6255,48.02625 36.41475,47.92125 L33.75,46.5885 L31.08525,47.92125 C30.8745,48.02625 30.6255,48.02625 30.41475,47.92125 L27.75,46.5885 L25.08525,47.92125 C24.8745,48.02625 24.6255,48.02625 24.41475,47.92125 L21.75,46.5885 L19.08525,47.92125 C18.8745,48.02625 18.6255,48.02625 18.41475,47.92125 L15.75,46.5885 L13.08525,47.92125 C12.8745,48.02625 12.6255,48.02625 12.41475,47.92125 L9.75,46.5885 L7.08525,47.92125 C6.8745,48.02625 6.6255,48.02625 6.41475,47.92125 L3.41475,46.42125 C3.1605,46.29375 3,46.03425 3,45.75 L3,40.5 L4.5,40.5 L4.5,45.2865 L6.75,46.4115 L9.41475,45.07875 C9.6255,44.97375 9.8745,44.97375 10.08525,45.07875 L12.75,46.4115 L15.41475,45.07875 C15.6255,44.97375 15.8745,44.97375 16.08525,45.07875 L18.75,46.4115 L21.41475,45.07875 C21.6255,44.97375 21.8745,44.97375 22.08525,45.07875 L24.75,46.4115 L27.41475,45.07875 C27.6255,44.97375 27.8745,44.97375 28.08525,45.07875 L30.75,46.4115 L33.41475,45.07875 C33.6255,44.97375 33.8745,44.97375 34.08525,45.07875 L36.75,46.4115 L39.41475,45.07875 C39.6255,44.97375 39.8745,44.97375 40.08525,45.07875 L42.75,46.4115 L45,45.2865 L45,40.5 L46.5,40.5 L46.5,45.75 C46.5,46.03425 46.3395,46.29375 46.08525,46.42125 L43.08525,47.92125 C42.98025,47.97375 42.86475,48 42.75,48" id="Fill-701"></path>
        </g>
    </g>
</svg>